<svg xmlns="http://www.w3.org/2000/svg" version="1.1" xmlns:xlink="http://www.w3.org/1999/xlink" xmlns:svgjs="http://svgjs.dev/svgjs" width="1000" height="186" viewBox="0 0 1000 186"><g transform="matrix(1,0,0,1,-0.6060606060606233,-0.25821082506051596)"><svg viewBox="0 0 396 74" data-background-color="#ffffff" preserveAspectRatio="xMidYMid meet" height="186" width="1000" xmlns="http://www.w3.org/2000/svg" xmlns:xlink="http://www.w3.org/1999/xlink"><g id="tight-bounds" transform="matrix(1,0,0,1,0.2400000000000091,0.10272903792730403)"><svg viewBox="0 0 395.52 73.79454192414542" height="73.79454192414542" width="395.52"><g><svg viewBox="0 0 395.52 73.79454192414542" height="73.79454192414542" width="395.52"><g><svg viewBox="0 0 395.52 73.79454192414542" height="73.79454192414542" width="395.52"><g><svg viewBox="0 0 530.5640736707421 98.99052583419538" height="73.79454192414542" width="395.52"><g transform="matrix(1,0,0,1,135.0440736707422,25.619111003398856)"><svg viewBox="0 0 395.52 47.75230382739767" height="47.75230382739767" width="395.52"><g id="textblocktransform"><svg viewBox="0 0 395.52 47.75230382739767" height="47.75230382739767" width="395.52" id="textblock"><g><svg viewBox="0 0 395.52 47.75230382739767" height="47.75230382739767" width="395.52"><g transform="matrix(1,0,0,1,0,0)"><svg width="395.52" viewBox="4 -32.04999923706055 338.32000732421875 40.849998474121094" height="47.75230382739767" data-palette-color="#096a2e"><path d="M27.8 0L4 0 4.5-4 4.5-29.4 11.1-29.4 11.1-4.8 31.8-4.8 33.8-0.55Q33.8-0.35 32.45-0.18 31.1 0 27.8 0L27.8 0ZM53.45 0L43.4 0Q40.9 0 39.55-0.65 38.2-1.3 37.62-2.3 37.05-3.3 36.92-4.4 36.8-5.5 36.8-6.4L36.8-6.4 36.8-16Q36.8-16.75 36.92-17.82 37.05-18.9 37.62-19.95 38.2-21 39.57-21.7 40.95-22.4 43.4-22.4L43.4-22.4 54.15-22.4Q57.45-22.4 59.32-21.78 61.2-21.15 61.97-19.75 62.75-18.35 62.75-16L62.75-16 62.75-8.6 54-8.6Q49.5-8.6 46.67-8.8 43.85-9 42.9-9.05L42.9-9.05 42.9-6.3Q42.85-4.3 45.3-4.3L45.3-4.3 47.85-4.3Q50.55-4.3 53.12-4.38 55.7-4.45 57.85-4.58 60-4.7 61.3-4.8L61.3-4.8 63.3-1.55Q63.3 0 53.45 0L53.45 0ZM42.9-16.1L42.9-12.9 56.65-12.9 56.65-16.1Q56.65-17.1 56.42-17.5 56.2-17.9 55.1-18 54-18.1 51.35-18.1L51.35-18.1 45.3-18.1Q42.9-18.1 42.9-16.1L42.9-16.1ZM87.25 8.8L84.75 8.8Q79.25 8.8 75.8 8.7 72.35 8.6 70.5 8.4 68.65 8.2 67.97 7.9 67.3 7.6 67.3 7.25L67.3 7.25 68.8 3.5Q69.6 3.75 71.62 4.13 73.65 4.5 76.8 4.5L76.8 4.5 85.35 4.5Q87.2 4.5 87.97 3.95 88.75 3.4 88.75 2L88.75 2 88.75-1Q86.6-0.6 83.67-0.3 80.75 0 76.95 0L76.95 0 74.45 0Q71.95 0 70.6-0.65 69.25-1.3 68.67-2.3 68.1-3.3 67.97-4.4 67.85-5.5 67.85-6.4L67.85-6.4 67.85-16Q67.85-16.75 67.97-17.82 68.1-18.9 68.67-19.95 69.25-21 70.62-21.7 72-22.4 74.45-22.4L74.45-22.4 77-22.4Q82.25-22.4 85.17-22.2 88.1-22 89.45-21.75L89.45-21.75 90.75-22.4 94.85-22.4 94.85 2.4Q94.85 3.3 94.57 4.4 94.3 5.5 93.5 6.5 92.7 7.5 91.2 8.15 89.7 8.8 87.25 8.8L87.25 8.8ZM76.35-4.3L76.35-4.3 87.2-4.3Q88.35-4.3 88.55-4.5 88.75-4.7 88.75-5.8L88.75-5.8 88.75-17.75Q87.05-17.85 84.45-17.98 81.85-18.1 78.9-18.1L78.9-18.1 76.35-18.1Q73.95-18.1 73.95-16.1L73.95-16.1 73.95-6.3Q73.9-4.3 76.35-4.3ZM104.39-25.55L104.39-25.55Q102.54-25.55 101.69-26.3 100.84-27.05 100.84-28.8L100.84-28.8Q100.84-30.6 101.67-31.33 102.49-32.05 104.39-32.05L104.39-32.05Q106.29-32.05 107.14-31.33 107.99-30.6 107.99-28.8L107.99-28.8Q107.99-27.1 107.14-26.33 106.29-25.55 104.39-25.55ZM107.44 0L101.34 0 101.34-22.4 107.44-22.4 107.44 0ZM124.24 0L122.69 0Q118.89 0 117.49-1.6 116.09-3.2 116.09-6.4L116.09-6.4 116.09-18.1 111.99-18.1 111.99-22.4 114.09-22.4Q115.04-22.4 115.47-22.7 115.89-23 116.09-23.9L116.09-23.9 117.09-29.25 122.19-29.25 122.19-22.4 132.59-22.4 132.59-18.1 122.19-18.1 122.19-6.35Q122.19-5.1 122.79-4.7 123.39-4.3 124.59-4.3L124.59-4.3 131.64-4.3 132.14-0.5Q131.09-0.35 128.94-0.18 126.79 0 124.24 0L124.24 0ZM165.24 0L158.64 0 158.59-24.65 145.59-24.65 145.59-29.45 178.29-29.45 178.29-24.65 165.24-24.65 165.24 0ZM187.38 0L181.28 0 181.28-22.4 185.38-22.4 187.28-21.4Q188.58-22.1 190.08-22.5 191.58-22.9 193.88-22.9L193.88-22.9Q197.53-22.9 199.81-22.1 202.08-21.3 202.83-20.9L202.83-20.9 201.08-16.55Q200.48-16.85 199.11-17.32 197.73-17.8 195.88-18.2 194.03-18.6 191.83-18.6L191.83-18.6 191.28-18.6Q188.88-18.6 188.16-17.65 187.43-16.7 187.38-14.5L187.38-14.5 187.38 0ZM213.28 0L210.78 0Q206.98 0 205.28-1.78 203.58-3.55 203.58-6.65L203.58-6.65Q203.58-9.9 205.36-11.65 207.13-13.4 210.78-13.4L210.78-13.4 213.33-13.4Q217.08-13.4 220.08-13.2 223.08-13 225.03-12.8L225.03-12.8 225.03-16.1Q225.03-16.55 224.93-17.03 224.83-17.5 224.33-17.8 223.83-18.1 222.63-18.1L222.63-18.1 220.13-18.1Q214.68-18.1 211.03-17.93 207.38-17.75 206.08-17.6L206.08-17.6 205.53-21.4Q205.53-22.1 209.33-22.25 213.13-22.4 222.03-22.4L222.03-22.4 224.53-22.4Q227.03-22.4 228.38-21.7 229.73-21 230.31-19.95 230.88-18.9 231.01-17.82 231.13-16.75 231.13-16L231.13-16 231.13 0 227.03 0 225.08-1Q222.98-0.65 220.03-0.33 217.08 0 213.28 0L213.28 0ZM212.08-4.3L212.08-4.3 223.53-4.3Q224.63-4.3 224.83-4.5 225.03-4.7 225.03-5.75L225.03-5.75 225.03-9.6 212.08-9.6Q210.73-9.6 210.21-8.95 209.68-8.3 209.68-6.9L209.68-6.9Q209.68-5.5 210.28-4.9 210.88-4.3 212.08-4.3ZM245.48 0L242.98 0Q240.48 0 239.13-0.65 237.78-1.3 237.2-2.3 236.63-3.3 236.5-4.4 236.38-5.5 236.38-6.4L236.38-6.4 236.38-16Q236.38-16.75 236.5-17.82 236.63-18.9 237.2-19.95 237.78-21 239.15-21.7 240.53-22.4 242.98-22.4L242.98-22.4 245.53-22.4Q250.13-22.4 252.95-22.23 255.78-22.05 257.28-21.85L257.28-21.85 257.28-31.7 263.38-31.7 263.38 0 259.28 0 257.33-1Q255.23-0.65 252.28-0.33 249.33 0 245.48 0L245.48 0ZM244.88-4.3L244.88-4.3 255.73-4.3Q256.78-4.3 257.03-4.55 257.28-4.8 257.28-5.8L257.28-5.8 257.28-17.75Q255.58-17.85 252.98-17.98 250.38-18.1 247.43-18.1L247.43-18.1 244.88-18.1Q242.48-18.1 242.48-16.1L242.48-16.1 242.48-6.3Q242.48-4.3 244.88-4.3ZM273.43-25.55L273.43-25.55Q271.58-25.55 270.73-26.3 269.88-27.05 269.88-28.8L269.88-28.8Q269.88-30.6 270.7-31.33 271.53-32.05 273.43-32.05L273.43-32.05Q275.33-32.05 276.18-31.33 277.03-30.6 277.03-28.8L277.03-28.8Q277.03-27.1 276.18-26.33 275.33-25.55 273.43-25.55ZM276.48 0L270.38 0 270.38-22.4 276.48-22.4 276.48 0ZM289.12 0L283.02 0 283.02-22.4 287.12-22.4 289.12-21.4Q291.22-21.8 294.17-22.1 297.12-22.4 300.92-22.4L300.92-22.4 303.42-22.4Q305.92-22.4 307.27-21.7 308.62-21 309.2-19.95 309.77-18.9 309.9-17.82 310.02-16.75 310.02-16L310.02-16 310.02 0 303.92 0 303.92-16.1Q303.92-18.1 301.52-18.1L301.52-18.1 290.62-18.1Q289.67-18.1 289.4-17.93 289.12-17.75 289.12-17L289.12-17 289.12 0ZM334.72 8.8L332.22 8.8Q326.72 8.8 323.27 8.7 319.82 8.6 317.97 8.4 316.12 8.2 315.45 7.9 314.77 7.6 314.77 7.25L314.77 7.25 316.27 3.5Q317.07 3.75 319.1 4.13 321.12 4.5 324.27 4.5L324.27 4.5 332.82 4.5Q334.67 4.5 335.45 3.95 336.22 3.4 336.22 2L336.22 2 336.22-1Q334.07-0.6 331.15-0.3 328.22 0 324.42 0L324.42 0 321.92 0Q319.42 0 318.07-0.65 316.72-1.3 316.15-2.3 315.57-3.3 315.45-4.4 315.32-5.5 315.32-6.4L315.32-6.4 315.32-16Q315.32-16.75 315.45-17.82 315.57-18.9 316.15-19.95 316.72-21 318.1-21.7 319.47-22.4 321.92-22.4L321.92-22.4 324.47-22.4Q329.72-22.4 332.65-22.2 335.57-22 336.92-21.75L336.92-21.75 338.22-22.4 342.32-22.4 342.32 2.4Q342.32 3.3 342.05 4.4 341.77 5.5 340.97 6.5 340.17 7.5 338.67 8.15 337.17 8.8 334.72 8.8L334.72 8.8ZM323.82-4.3L323.82-4.3 334.67-4.3Q335.82-4.3 336.02-4.5 336.22-4.7 336.22-5.8L336.22-5.8 336.22-17.75Q334.52-17.85 331.92-17.98 329.32-18.1 326.37-18.1L326.37-18.1 323.82-18.1Q321.42-18.1 321.42-16.1L321.42-16.1 321.42-6.3Q321.37-4.3 323.82-4.3Z" opacity="1" transform="matrix(1,0,0,1,0,0)" fill="#096a2e" class="wordmark-text-0" data-fill-palette-color="primary" id="text-0"></path></svg></g></svg></g></svg></g></svg></g><g><svg viewBox="0 0 123.77090079238546 98.99052583419538" height="98.99052583419538" width="123.77090079238546"><g><svg xmlns="http://www.w3.org/2000/svg" xmlns:xlink="http://www.w3.org/1999/xlink" version="1.1" x="0" y="0" viewBox="0 16 100 79.97883605957031" enable-background="new 0 0 100 100" xml:space="preserve" height="98.99052583419538" width="123.77090079238546" class="icon-icon-0" data-fill-palette-color="accent" id="icon-0"><path d="M62.925 93.344c-1.734-1.275-1.918-3.19-1.918-3.19L60.358 86H39.643l-0.652 4.153c0 0-0.181 1.915-1.914 3.19-1.732 1.275-3.099 2.369-1.732 2.553 1.317 0.178 13.74 0.016 14.656 0.001 0.918 0.015 13.338 0.177 14.655-0.001C66.022 95.713 64.655 94.621 62.925 93.344z" fill="#1b5e20" data-fill-palette-color="accent"></path><g fill="#1b5e20" data-fill-palette-color="accent"><rect x="22.751" y="49.495" width="8" height="15" fill="#1b5e20" data-fill-palette-color="accent"></rect><rect x="39.751" y="42.495" width="8" height="22" fill="#1b5e20" data-fill-palette-color="accent"></rect><rect x="55.752" y="49.495" width="8" height="15" fill="#1b5e20" data-fill-palette-color="accent"></rect><rect x="70.752" y="42.495" width="8" height="22" fill="#1b5e20" data-fill-palette-color="accent"></rect><polygon points="44.648,34.055 60.82,44.414 83.174,28.24 80.828,25 60.684,39.576 44.854,29.435 16.826,43.847 18.677,47.393  " fill="#1b5e20" data-fill-palette-color="accent"></polygon></g><path d="M96 16H4c-2.209 0-4 1.791-4 4v58c0 2.209 1.791 4 4 4h92c2.209 0 4-1.791 4-4V20C100 17.791 98.209 16 96 16zM94.001 70h-88V22h88V70z" fill="#1b5e20" data-fill-palette-color="accent"></path></svg></g></svg></g></svg></g></svg></g></svg></g><defs></defs></svg><rect width="395.52" height="73.79454192414542" fill="none" stroke="none" visibility="hidden"></rect></g></svg></g></svg>